{"glyphs":{"0":{"ha":769,"x_min":17,"x_max":753,"o":"m 17 389 q 41 548 17 476 q 113 671 65 619 q 228 750 160 722 q 383 778 296 778 q 540 750 471 778 q 656 671 608 722 q 728 548 703 619 q 753 389 753 476 q 727 228 753 301 q 653 100 701 154 q 535 16 604 46 q 378 -14 465 -14 q 223 16 290 -14 q 110 100 156 46 q 40 228 64 154 q 17 389 17 301 m 378 556 q 261 508 301 556 q 221 383 221 460 q 261 258 221 307 q 378 208 301 208 q 497 258 454 208 q 540 383 540 307 q 497 508 540 460 q 378 556 454 556 z "},"1":{"ha":328,"x_min":15,"x_max":307,"o":"m 99 0 l 106 569 l 15 556 l 29 750 l 293 764 l 307 0 l 99 0 z "},"2":{"ha":542,"x_min":17,"x_max":517,"o":"m 58 736 q 115 757 83 747 q 181 771 143 764 q 267 778 219 778 q 358 762 314 778 q 438 715 403 746 q 495 637 474 683 q 517 528 517 590 q 490 401 517 456 q 425 307 464 347 q 342 236 386 267 q 263 179 297 206 l 517 194 l 517 0 l 31 0 l 17 208 q 156 281 94 240 q 207 317 182 297 q 251 360 232 338 q 283 408 271 383 q 294 458 294 432 q 267 533 294 511 q 197 556 239 556 q 140 551 165 556 q 96 542 114 547 q 58 528 74 536 l 58 736 z "},"3":{"ha":506,"x_min":18,"x_max":496,"o":"m 32 736 q 74 750 49 744 q 126 760 94 756 q 199 764 157 764 q 347 738 288 764 q 437 671 406 711 q 474 583 468 631 q 466 492 481 535 q 418 416 451 449 q 338 375 385 383 q 434 329 397 363 q 483 253 471 296 q 486 163 496 210 q 444 76 476 115 q 358 12 413 38 q 226 -14 303 -14 q 126 -8 164 -14 q 67 7 88 -1 q 32 28 42 15 l 18 250 q 53 222 31 235 q 100 203 71 211 q 171 194 129 194 q 262 214 233 194 q 285 257 290 233 q 240 300 279 281 q 129 319 200 319 l 143 444 q 233 464 201 444 q 269 507 265 483 q 249 550 274 531 q 171 569 225 569 q 119 563 144 569 q 75 549 94 556 q 32 528 51 539 l 32 736 z "},"4":{"ha":596,"x_min":11,"x_max":581,"o":"m 524 150 l 525 0 l 317 0 l 321 147 l 25 153 l 11 361 l 338 750 l 518 764 l 521 344 l 581 347 l 567 153 l 524 150 m 326 342 l 331 494 l 164 347 l 326 342 z "},"5":{"ha":524,"x_min":24,"x_max":507,"o":"m 426 556 l 228 563 l 218 514 q 323 498 271 514 q 416 449 375 482 q 482 367 457 417 q 507 250 507 318 q 495 168 507 214 q 453 82 483 122 q 369 14 422 42 q 232 -14 315 -14 q 142 -8 179 -14 q 82 7 106 -1 q 38 28 54 15 l 24 250 q 64 222 40 235 q 112 203 83 211 q 176 194 140 194 q 217 199 196 194 q 257 213 239 203 q 287 238 275 222 q 299 278 299 254 q 289 313 299 293 q 250 349 279 332 q 169 377 221 365 q 35 389 118 389 l 49 736 l 426 764 l 426 556 z "},"6":{"ha":639,"x_min":14,"x_max":625,"o":"m 500 556 q 354 532 414 556 q 264 463 294 508 q 318 480 288 474 q 389 486 349 486 q 474 472 432 486 q 550 428 517 457 q 604 359 583 400 q 625 264 625 318 q 605 150 625 201 q 547 63 585 99 q 456 6 510 26 q 333 -14 401 -14 q 201 14 260 -14 q 100 92 142 42 q 36 215 58 143 q 14 375 14 286 q 132 670 14 563 q 500 778 250 778 l 500 556 m 333 181 q 392 203 367 181 q 417 278 417 225 q 389 347 417 319 q 319 375 361 375 q 272 364 292 375 q 236 339 251 353 q 246 263 238 293 q 267 214 254 232 q 297 188 281 196 q 333 181 314 181 z "},"7":{"ha":481,"x_min":13,"x_max":471,"o":"m 96 0 l 260 560 l 13 569 l 13 778 l 471 750 l 318 0 l 96 0 z "},"8":{"ha":617,"x_min":17,"x_max":600,"o":"m 17 222 q 31 297 17 265 q 61 349 44 328 q 107 389 81 374 q 61 429 81 404 q 31 481 44 450 q 17 556 17 511 q 90 726 17 660 q 308 792 163 792 q 435 772 381 792 q 527 720 490 753 q 582 645 564 688 q 600 556 600 603 q 585 484 600 515 q 554 432 571 453 q 510 389 535 407 q 554 344 535 369 q 585 292 571 322 q 600 222 600 263 q 582 133 600 175 q 527 58 564 90 q 435 6 490 25 q 308 -14 381 -14 q 90 52 163 -14 q 17 222 17 118 m 232 556 q 253 497 232 514 q 315 464 274 481 q 378 497 357 481 q 399 556 399 514 q 373 606 399 588 q 315 625 347 625 q 258 606 283 625 q 232 556 232 588 m 232 228 q 258 177 232 196 q 315 158 283 158 q 373 177 347 158 q 399 228 399 196 q 378 286 399 269 q 315 319 357 303 q 253 286 274 303 q 232 228 232 269 z "},"9":{"ha":686,"x_min":17,"x_max":669,"o":"m 169 208 q 322 241 265 208 q 406 322 378 274 q 353 301 383 310 q 281 292 322 292 q 192 303 239 292 q 107 342 146 315 q 42 415 68 369 q 17 528 17 460 q 45 649 17 600 q 119 726 74 697 q 222 766 165 754 q 336 778 279 778 q 488 751 425 778 q 592 676 551 724 q 651 561 632 628 q 669 417 669 494 q 640 262 669 339 q 551 124 611 185 q 400 24 492 63 q 183 -14 308 -14 l 169 208 m 322 611 q 260 583 281 611 q 239 514 239 556 q 260 445 239 474 q 322 417 281 417 q 392 427 365 417 q 433 451 418 438 q 426 513 432 485 q 407 564 419 542 q 374 599 394 586 q 322 611 353 611 z "},"\r":{"ha":347,"x_min":0,"x_max":0,"o":""}," ":{"ha":208,"x_min":0,"x_max":0,"o":""},"A":{"ha":631,"x_min":17,"x_max":614,"o":"m 17 0 l 183 750 l 433 764 l 614 0 l 392 0 l 376 97 l 251 97 l 239 0 l 17 0 m 271 250 l 353 250 l 308 542 l 271 250 z "},"B":{"ha":576,"x_min":11,"x_max":567,"o":"m 11 764 q 60 771 31 767 q 123 776 85 774 q 214 778 161 778 q 333 766 276 778 q 432 727 389 754 q 500 655 475 700 q 525 542 525 610 q 508 453 525 488 q 472 398 492 418 q 433 370 451 378 q 410 361 414 363 q 454 352 428 361 q 506 324 481 343 q 549 272 531 304 q 567 194 567 240 q 556 115 567 153 q 518 49 544 78 q 449 3 492 19 q 344 -14 407 -14 q 289 -11 313 -14 q 246 -3 265 -8 l 51 0 l 64 563 l 25 556 l 11 764 m 344 486 q 249 568 344 558 l 251 417 q 299 427 281 419 q 327 444 317 435 q 341 465 338 454 q 344 486 344 476 m 372 222 q 338 253 372 246 q 254 264 303 261 l 256 182 q 271 181 263 181 q 289 181 279 181 q 353 194 335 181 q 372 222 372 207 z "},"C":{"ha":593,"x_min":17,"x_max":571,"o":"m 251 375 q 298 238 251 281 q 418 194 344 194 q 476 197 449 194 q 525 201 504 199 q 571 208 550 204 l 557 0 q 528 -7 547 -4 q 481 -12 511 -10 q 404 -14 451 -14 q 337 -10 376 -14 q 254 6 297 -7 q 169 45 211 19 q 93 114 126 71 q 38 221 60 157 q 17 375 17 285 q 38 544 17 475 q 92 658 58 614 q 170 727 126 703 q 258 763 214 751 q 344 776 303 774 q 418 778 386 778 q 481 776 454 778 q 524 771 507 774 q 557 764 543 767 l 571 556 q 525 563 550 558 q 476 567 504 565 q 418 569 449 569 q 298 519 344 569 q 251 375 251 469 z "},"D":{"ha":657,"x_min":11,"x_max":636,"o":"m 11 764 q 54 771 29 767 q 110 776 76 774 q 192 778 144 778 q 378 750 296 778 q 518 671 461 722 q 606 547 575 619 q 636 382 636 474 q 614 235 636 304 q 541 113 592 165 q 408 31 490 61 q 206 0 325 0 l 51 0 l 63 564 l 25 556 l 11 764 m 414 375 q 366 501 414 454 q 247 563 318 547 l 256 201 q 372 249 332 201 q 414 375 413 296 z "},"E":{"ha":497,"x_min":21,"x_max":479,"o":"m 465 0 l 21 0 l 35 750 l 465 764 l 479 556 l 215 569 l 218 472 l 451 486 l 438 278 l 225 290 l 229 194 l 479 208 l 465 0 z "},"F":{"ha":478,"x_min":21,"x_max":460,"o":"m 225 263 l 229 0 l 21 0 l 35 757 l 444 764 l 460 556 l 222 569 l 224 444 l 438 458 l 424 250 l 225 263 z "},"G":{"ha":633,"x_min":17,"x_max":613,"o":"m 251 375 q 296 247 251 283 q 411 208 340 210 l 404 375 l 613 375 l 599 0 q 549 -7 578 -4 q 488 -12 524 -10 q 404 -14 451 -14 q 337 -10 376 -14 q 254 6 297 -7 q 169 45 211 19 q 93 114 126 71 q 38 221 60 157 q 17 375 17 285 q 38 544 17 475 q 92 658 58 614 q 170 727 126 703 q 258 763 214 751 q 344 776 303 774 q 418 778 386 778 q 481 776 454 778 q 524 771 507 774 q 557 764 543 767 l 571 556 q 525 563 550 558 q 476 567 504 565 q 418 569 449 569 q 298 519 344 569 q 251 375 251 469 z "},"H":{"ha":583,"x_min":21,"x_max":563,"o":"m 35 750 l 215 764 l 219 486 l 363 486 l 368 750 l 549 764 l 563 0 l 354 0 l 358 278 l 224 278 l 229 0 l 21 0 l 35 750 z "},"I":{"ha":250,"x_min":21,"x_max":229,"o":"m 32 750 l 213 764 l 229 0 l 21 0 l 32 750 z "},"J":{"ha":386,"x_min":13,"x_max":367,"o":"m 358 750 l 365 278 q 366 227 365 257 q 363 165 367 197 q 348 101 358 133 q 317 43 338 68 q 263 2 296 18 q 179 -14 229 -14 q 113 -12 143 -14 q 60 -7 82 -10 q 13 0 35 -4 l 25 208 q 51 201 38 204 q 108 194 76 194 q 154 230 144 196 q 168 347 164 264 l 174 569 l 79 556 l 94 764 l 358 750 z "},"K":{"ha":551,"x_min":21,"x_max":535,"o":"m 35 750 l 215 764 l 221 397 q 263 435 244 411 q 285 500 281 460 l 313 750 l 507 764 l 479 486 q 408 314 468 378 l 535 0 l 326 0 l 257 232 q 225 225 239 226 l 229 0 l 21 0 l 35 750 z "},"L":{"ha":483,"x_min":21,"x_max":465,"o":"m 451 0 l 21 0 l 35 750 l 215 764 l 229 194 l 465 208 l 451 0 z "},"M":{"ha":769,"x_min":17,"x_max":753,"o":"m 85 750 l 253 764 l 376 389 l 390 389 l 517 750 l 683 764 l 753 0 l 544 0 l 532 324 l 461 97 l 322 97 l 236 311 l 225 0 l 17 0 l 85 750 z "},"N":{"ha":653,"x_min":21,"x_max":632,"o":"m 35 750 l 215 764 l 424 347 l 438 750 l 618 764 l 632 0 l 368 0 l 222 399 l 229 0 l 21 0 l 35 750 z "},"O":{"ha":769,"x_min":17,"x_max":753,"o":"m 17 389 q 41 548 17 476 q 113 671 65 619 q 228 750 160 722 q 383 778 296 778 q 540 750 471 778 q 656 671 608 722 q 728 548 703 619 q 753 389 753 476 q 727 228 753 301 q 653 100 701 154 q 535 16 604 46 q 378 -14 465 -14 q 223 16 290 -14 q 110 100 156 46 q 40 228 64 154 q 17 389 17 301 m 378 556 q 261 508 301 556 q 221 383 221 460 q 261 258 221 307 q 378 208 301 208 q 497 258 454 208 q 540 383 540 307 q 497 508 540 460 q 378 556 454 556 z "},"P":{"ha":556,"x_min":13,"x_max":540,"o":"m 64 563 l 26 556 l 13 764 q 65 771 35 767 q 131 776 92 774 q 222 778 169 778 q 353 762 294 778 q 454 713 413 746 q 518 631 496 681 q 540 514 540 582 q 516 396 540 444 q 452 315 492 347 q 363 268 413 283 q 258 250 313 253 l 263 0 l 54 0 l 64 563 m 360 472 q 331 540 358 513 q 251 569 304 567 l 256 389 q 335 418 311 393 q 360 472 360 443 z "},"Q":{"ha":769,"x_min":17,"x_max":753,"o":"m 525 -181 l 378 -14 q 223 16 290 -14 q 110 100 156 46 q 40 228 64 154 q 17 389 17 301 q 41 548 17 476 q 113 671 65 619 q 228 750 160 722 q 383 778 296 778 q 540 750 471 778 q 656 671 608 722 q 728 548 703 619 q 753 389 753 476 q 709 184 753 274 q 585 43 665 94 l 682 -43 l 525 -181 m 378 556 q 261 508 301 556 q 221 383 221 460 q 261 258 221 307 q 378 208 301 208 q 497 258 454 208 q 540 383 540 307 q 497 508 540 460 q 378 556 454 556 z "},"R":{"ha":583,"x_min":13,"x_max":568,"o":"m 13 764 q 65 771 35 767 q 131 776 92 774 q 222 778 169 778 q 353 762 294 778 q 454 713 413 746 q 518 631 496 681 q 540 514 540 582 q 512 400 540 447 q 438 321 483 353 l 568 0 l 346 0 l 282 267 l 257 264 l 263 0 l 54 0 l 64 563 q 35 558 43 560 q 26 556 29 557 l 13 764 m 256 389 q 335 418 311 393 q 360 472 360 443 q 331 540 358 513 q 251 569 304 567 l 256 389 z "},"S":{"ha":508,"x_min":18,"x_max":490,"o":"m 490 556 q 468 563 482 558 q 438 567 457 565 q 393 569 419 569 q 317 549 351 569 q 282 486 282 528 q 315 433 282 460 q 386 373 347 406 q 458 300 425 340 q 490 208 490 260 q 467 108 490 150 q 407 38 444 65 q 322 -1 369 11 q 226 -14 275 -14 q 137 -12 174 -14 q 76 -7 100 -10 q 32 0 49 -4 l 18 208 q 44 194 29 200 q 74 185 57 189 q 115 181 92 181 q 174 188 151 181 q 208 205 196 194 q 223 227 219 215 q 226 250 226 239 q 194 302 226 271 q 122 375 161 333 q 51 469 83 417 q 18 583 18 521 q 44 678 18 640 q 113 738 69 715 q 215 769 157 760 q 335 778 272 778 q 397 776 371 778 q 442 771 424 774 q 476 764 463 767 l 490 556 z "},"T":{"ha":593,"x_min":19,"x_max":575,"o":"m 19 750 l 561 764 l 575 556 l 383 560 l 394 0 l 186 0 l 196 565 l 28 569 l 19 750 z "},"U":{"ha":672,"x_min":17,"x_max":656,"o":"m 336 -14 q 181 20 242 -14 q 83 110 119 54 q 31 239 46 167 q 17 389 17 311 q 21 500 17 451 q 33 590 25 549 q 52 670 40 632 q 79 750 64 708 l 288 764 q 267 697 276 739 q 249 604 257 656 q 235 497 240 553 q 229 387 231 440 q 231 286 228 333 q 246 208 235 239 q 265 194 253 200 q 293 185 276 189 q 336 181 310 181 q 381 185 363 181 q 414 194 400 189 q 440 208 429 200 q 453 285 450 239 q 454 383 457 331 q 444 490 451 435 q 426 594 436 544 q 406 685 417 644 q 385 750 394 725 l 593 778 q 640 604 624 694 q 656 389 656 514 q 643 239 656 311 q 595 110 631 167 q 497 20 560 54 q 336 -14 435 -14 z "},"V":{"ha":631,"x_min":17,"x_max":614,"o":"m 315 278 l 399 750 q 431 752 397 750 q 506 757 465 754 q 614 764 553 760 l 440 0 l 190 0 l 17 750 l 246 764 l 315 278 z "},"W":{"ha":964,"x_min":17,"x_max":947,"o":"m 246 764 l 315 347 l 413 722 l 565 722 l 649 347 l 732 750 l 947 764 l 774 0 l 565 0 l 496 278 l 413 0 l 190 0 l 17 750 l 246 764 z "},"X":{"ha":631,"x_min":17,"x_max":614,"o":"m 17 750 l 239 764 l 318 603 l 392 750 l 586 764 l 419 396 l 614 0 l 419 0 l 321 182 l 239 0 l 17 0 l 211 388 l 17 750 z "},"Y":{"ha":617,"x_min":17,"x_max":600,"o":"m 406 278 l 419 0 l 211 0 l 225 278 l 17 750 l 232 764 l 322 444 l 385 750 l 600 764 l 406 278 z "},"Z":{"ha":624,"x_min":18,"x_max":601,"o":"m 46 750 l 588 764 l 574 556 l 271 192 l 601 208 l 588 0 l 32 0 l 18 181 l 315 568 l 32 556 l 46 750 z "},"a":{"ha":621,"x_min":17,"x_max":600,"o":"m 393 47 q 267 0 343 0 q 169 18 214 0 q 90 69 124 36 q 36 152 56 103 q 17 264 17 201 q 34 357 17 315 q 82 427 51 399 q 154 471 113 456 q 246 486 196 486 q 306 476 279 486 q 351 450 332 465 q 382 416 369 435 q 401 379 394 397 l 406 486 l 586 500 l 600 0 l 392 0 l 393 47 m 315 153 q 360 166 339 153 q 397 196 382 179 l 400 303 q 368 323 389 313 q 315 333 347 333 q 284 329 300 333 q 255 315 268 325 q 233 290 242 306 q 225 250 225 274 q 233 206 225 224 q 255 176 242 188 q 284 158 268 164 q 315 153 300 153 z "},"b":{"ha":621,"x_min":21,"x_max":604,"o":"m 21 0 l 35 750 l 215 764 l 222 388 q 243 422 231 404 q 274 454 256 440 q 318 477 293 468 q 375 486 343 486 q 467 471 425 486 q 539 427 508 456 q 587 357 569 399 q 604 264 604 315 q 585 152 604 201 q 531 69 565 103 q 451 18 497 36 q 354 0 406 0 q 285 11 318 0 q 228 46 251 22 l 229 0 l 21 0 m 306 333 q 256 324 276 333 q 224 304 235 314 l 225 193 q 262 165 240 178 q 306 153 283 153 q 337 158 321 153 q 366 176 353 164 q 388 206 379 188 q 396 250 396 224 q 388 290 396 274 q 366 315 379 306 q 337 329 353 325 q 306 333 321 333 z "},"c":{"ha":499,"x_min":17,"x_max":482,"o":"m 17 264 q 37 359 17 315 q 94 434 57 403 q 186 483 132 465 q 308 500 240 500 q 382 493 350 500 q 436 479 414 486 q 482 458 461 469 l 468 347 q 438 363 467 350 q 350 375 408 375 q 261 346 297 375 q 225 264 225 317 q 256 175 225 211 q 350 139 288 139 q 438 146 406 139 q 468 153 454 149 l 468 14 q 429 0 453 6 q 380 -10 410 -6 q 308 -14 350 -14 q 186 6 240 -14 q 94 63 132 26 q 37 150 57 99 q 17 264 17 201 z "},"d":{"ha":621,"x_min":17,"x_max":600,"o":"m 392 0 l 392 46 q 267 0 343 0 q 169 18 214 0 q 90 69 124 36 q 36 152 56 103 q 17 264 17 201 q 34 357 17 315 q 82 427 51 399 q 154 471 113 456 q 246 486 196 486 q 303 477 278 486 q 347 454 328 468 q 378 422 365 440 q 399 388 390 404 l 406 750 l 586 764 l 600 0 l 392 0 m 315 153 q 358 165 338 153 q 394 193 379 178 l 397 304 q 366 324 386 314 q 315 333 346 333 q 284 329 300 333 q 255 315 268 325 q 233 290 242 306 q 225 250 225 274 q 233 206 225 224 q 255 176 242 188 q 284 158 268 164 q 315 153 300 153 z "},"e":{"ha":526,"x_min":17,"x_max":510,"o":"m 17 264 q 35 359 17 315 q 88 434 54 403 q 168 483 121 465 q 274 500 215 500 q 375 481 331 500 q 449 428 419 461 q 494 353 479 396 q 510 264 510 311 l 257 174 q 350 139 289 139 q 402 143 378 139 q 444 153 426 147 q 482 167 465 158 l 496 28 q 443 7 472 15 q 384 -8 418 -1 q 308 -14 350 -14 q 186 6 240 -14 q 94 63 132 26 q 37 150 57 99 q 17 264 17 201 m 371 306 q 367 315 371 307 q 356 334 364 324 q 335 353 349 344 q 301 361 322 361 q 242 333 260 361 q 225 265 225 306 l 371 306 z "},"f":{"ha":371,"x_min":17,"x_max":350,"o":"m 44 0 l 57 386 l 17 389 l 17 500 l 43 501 q 33 549 36 524 q 31 597 31 574 q 91 722 31 681 q 267 764 151 764 l 350 764 l 350 569 l 253 569 q 194 562 215 569 q 164 544 174 554 q 153 523 154 533 q 153 506 151 513 l 308 514 l 308 375 l 240 378 l 253 0 l 44 0 z "},"g":{"ha":614,"x_min":17,"x_max":603,"o":"m 593 56 q 533 -195 603 -112 q 315 -278 463 -278 q 234 -274 268 -278 q 178 -264 200 -269 q 135 -250 153 -258 l 149 -56 q 179 -62 161 -60 q 274 -69 214 -69 q 354 -38 332 -69 q 382 43 376 -7 q 338 13 365 25 q 267 0 310 0 q 169 18 214 0 q 90 69 124 36 q 36 152 56 103 q 17 264 17 201 q 34 357 17 315 q 82 427 51 399 q 154 471 113 456 q 246 486 196 486 q 342 457 307 486 q 394 394 378 428 l 399 486 l 579 500 l 593 56 m 315 153 q 353 163 335 153 q 388 186 372 172 l 392 308 q 362 326 381 318 q 315 333 343 333 q 284 329 300 333 q 255 315 268 325 q 233 290 242 306 q 225 250 225 274 q 233 206 225 224 q 255 176 242 188 q 284 158 268 164 q 315 153 300 153 z "},"h":{"ha":542,"x_min":21,"x_max":521,"o":"m 21 0 l 35 750 l 215 764 l 222 372 q 239 410 228 390 q 266 447 250 431 q 304 475 282 464 q 354 486 326 486 q 431 471 401 486 q 479 427 461 456 q 505 357 497 399 q 514 264 513 315 l 521 0 l 299 0 q 301 99 300 51 q 304 181 303 139 q 306 250 306 224 q 292 315 306 297 q 257 333 278 333 q 237 326 244 333 q 224 310 229 318 l 229 0 l 21 0 z "},"i":{"ha":250,"x_min":21,"x_max":229,"o":"m 21 653 q 47 724 21 697 q 118 750 74 750 q 189 724 163 750 q 215 653 215 697 q 189 582 215 608 q 118 556 163 556 q 47 582 74 556 q 21 653 21 608 m 21 0 l 35 486 l 215 500 l 229 0 l 21 0 z "},"j":{"ha":258,"x_min":-137,"x_max":242,"o":"m 29 653 q 56 724 29 697 q 126 750 82 750 q 197 724 171 750 q 224 653 224 697 q 197 582 224 608 q 126 556 171 556 q 56 582 82 556 q 29 653 29 608 m 238 56 q 233 -90 242 -28 q 197 -194 224 -153 q 122 -257 169 -236 q 1 -278 74 -278 q -61 -274 -35 -278 q -104 -264 -87 -269 q -137 -250 -124 -258 l -124 -56 q -101 -62 -115 -60 q -26 -69 -76 -69 q 17 -23 6 -69 q 29 97 29 24 l 43 486 l 224 500 l 238 56 z "},"k":{"ha":524,"x_min":21,"x_max":507,"o":"m 21 0 l 35 750 l 215 764 l 222 314 q 266 342 246 319 q 292 417 286 364 l 299 486 l 493 500 l 479 403 q 400 250 464 300 l 507 0 l 299 0 l 246 208 q 235 210 240 210 q 225 210 229 210 l 229 0 l 21 0 z "},"l":{"ha":250,"x_min":21,"x_max":229,"o":"m 21 0 l 35 750 l 215 764 l 229 0 l 21 0 z "},"m":{"ha":811,"x_min":21,"x_max":790,"o":"m 21 0 l 35 486 l 215 500 l 218 383 q 236 419 225 401 q 263 452 247 438 q 299 476 278 467 q 346 486 319 486 q 444 457 411 486 q 492 374 478 428 q 508 412 497 392 q 536 449 519 432 q 574 476 553 465 q 624 486 596 486 q 701 471 671 486 q 749 427 731 456 q 774 357 767 399 q 783 264 782 315 l 790 0 l 568 0 q 571 99 569 51 q 574 181 572 139 q 575 250 575 224 q 561 315 575 297 q 526 333 547 333 q 513 330 519 333 q 501 322 507 326 l 513 0 l 290 0 q 293 99 292 51 q 296 181 294 139 q 297 250 297 224 q 283 315 297 297 q 249 333 269 333 q 233 328 239 333 q 221 317 226 324 l 229 0 l 21 0 z "},"n":{"ha":533,"x_min":21,"x_max":513,"o":"m 21 0 l 35 486 l 215 500 l 218 383 q 236 419 225 401 q 263 452 247 438 q 299 476 278 467 q 346 486 319 486 q 423 471 393 486 q 471 427 453 456 q 497 357 489 399 q 506 264 504 315 l 513 0 l 290 0 q 293 99 292 51 q 296 181 294 139 q 297 250 297 224 q 283 315 297 297 q 249 333 269 333 q 233 328 239 333 q 221 317 226 324 l 229 0 l 21 0 z "},"o":{"ha":561,"x_min":17,"x_max":544,"o":"m 544 243 q 476 49 544 113 q 281 -14 407 -14 q 85 49 154 -14 q 17 243 17 113 q 85 437 17 374 q 281 500 154 500 q 476 437 407 500 q 544 243 544 374 m 183 243 q 211 162 183 185 q 281 139 239 139 q 350 162 322 139 q 378 243 378 185 q 350 324 378 301 q 281 347 322 347 q 211 324 239 347 q 183 243 183 301 z "},"p":{"ha":621,"x_min":21,"x_max":604,"o":"m 21 -264 l 35 486 l 215 500 l 217 376 q 236 414 224 394 q 268 449 249 433 q 314 476 288 465 q 375 486 340 486 q 467 471 425 486 q 539 427 508 456 q 587 357 569 399 q 604 264 604 315 q 585 152 604 201 q 531 69 565 103 q 451 18 497 36 q 354 0 406 0 q 281 13 315 0 q 224 51 247 26 l 229 -264 l 21 -264 m 306 333 q 251 322 274 333 q 218 301 229 311 l 221 199 q 258 167 235 182 q 306 153 282 153 q 337 158 321 153 q 366 176 353 164 q 388 206 379 188 q 396 250 396 224 q 388 290 396 274 q 366 315 379 306 q 337 329 353 325 q 306 333 321 333 z "},"q":{"ha":621,"x_min":17,"x_max":600,"o":"m 392 -264 l 397 51 q 340 13 374 26 q 267 0 306 0 q 169 18 214 0 q 90 69 124 36 q 36 152 56 103 q 17 264 17 201 q 34 357 17 315 q 82 427 51 399 q 154 471 113 456 q 246 486 196 486 q 307 476 281 486 q 352 449 333 465 q 383 414 371 433 q 403 376 396 394 l 406 486 l 586 500 l 600 -264 l 392 -264 m 315 153 q 363 167 339 153 q 400 199 386 181 l 401 301 q 369 322 390 310 q 315 333 349 333 q 284 329 300 333 q 255 315 268 325 q 233 290 242 306 q 225 250 225 274 q 233 206 225 224 q 255 176 242 188 q 284 158 268 164 q 315 153 300 153 z "},"r":{"ha":440,"x_min":21,"x_max":424,"o":"m 21 0 l 35 486 l 215 500 l 218 382 q 237 418 225 400 q 267 451 249 436 q 310 476 285 467 q 368 486 335 486 q 394 484 383 486 q 411 479 404 482 q 424 472 418 475 l 417 306 q 390 313 406 308 q 358 317 376 315 q 313 319 339 319 q 253 313 274 319 q 221 300 232 307 l 229 0 l 21 0 z "},"s":{"ha":426,"x_min":22,"x_max":411,"o":"m 411 139 q 357 31 411 76 q 189 -14 303 -14 q 103 -10 136 -14 q 53 0 71 -6 q 22 14 31 6 l 22 167 q 49 160 32 163 q 88 155 64 157 q 147 153 111 153 q 231 181 231 153 q 215 195 231 189 q 176 208 200 201 q 126 225 153 215 q 76 250 100 235 q 38 289 53 265 q 22 347 22 313 q 81 465 22 431 q 244 500 140 500 q 299 498 276 500 q 338 493 322 496 q 369 486 356 489 l 369 319 l 342 326 q 310 331 328 329 q 272 333 293 333 q 204 325 219 333 q 189 306 189 317 q 206 283 189 292 q 247 265 222 274 q 300 248 271 257 q 353 225 329 239 q 394 190 378 211 q 411 139 411 169 z "},"t":{"ha":321,"x_min":7,"x_max":315,"o":"m 60 654 l 63 750 l 243 764 l 244 663 l 315 667 l 313 528 l 247 528 l 257 0 l 49 0 l 58 528 l 7 528 l 7 653 l 60 654 z "},"u":{"ha":528,"x_min":21,"x_max":507,"o":"m 299 0 l 300 57 q 256 8 283 29 q 188 -14 228 -14 q 110 1 140 -14 q 63 45 81 17 q 37 115 44 74 q 28 208 29 156 l 21 472 l 229 486 q 225 381 226 431 q 223 293 224 338 q 222 222 222 249 q 236 157 222 175 q 271 139 250 139 q 288 143 279 139 q 303 154 296 147 l 313 486 l 493 500 l 507 0 l 299 0 z "},"v":{"ha":533,"x_min":17,"x_max":517,"o":"m 517 500 l 364 0 l 142 0 l 17 486 l 197 500 l 253 167 l 336 486 l 517 500 z "},"w":{"ha":776,"x_min":17,"x_max":760,"o":"m 197 500 l 246 181 l 301 431 l 454 444 l 510 181 l 579 486 l 760 500 l 607 0 l 413 0 l 371 222 l 322 0 l 142 0 l 17 486 l 197 500 z "},"x":{"ha":589,"x_min":17,"x_max":572,"o":"m 211 500 l 310 361 l 350 486 l 572 500 l 394 244 l 572 0 l 336 0 l 264 108 l 239 0 l 31 0 l 176 243 l 17 486 l 211 500 z "},"y":{"ha":529,"x_min":21,"x_max":511,"o":"m 507 56 q 502 -90 511 -28 q 466 -194 493 -153 q 391 -257 439 -236 q 271 -278 343 -278 q 208 -274 235 -278 q 165 -264 182 -269 q 132 -250 146 -258 l 146 -56 q 168 -62 156 -60 q 221 -69 192 -69 q 282 -35 268 -69 q 297 54 296 -1 q 253 6 281 26 q 188 -14 226 -14 q 110 1 140 -14 q 63 45 81 17 q 37 115 44 74 q 28 208 29 156 l 21 472 l 229 486 q 225 381 226 431 q 223 293 224 338 q 222 222 222 249 q 236 157 222 175 q 271 139 250 139 q 300 151 285 139 l 313 486 l 493 500 l 507 56 l 507 56 z "},"z":{"ha":483,"x_min":21,"x_max":467,"o":"m 451 500 l 438 278 l 244 181 l 467 194 l 453 0 l 21 0 l 21 181 l 243 319 l 35 306 l 35 486 l 451 500 z "},":":{"ha":236,"x_min":21,"x_max":215,"o":"m 21 125 q 118 222 21 222 q 215 125 215 222 q 118 28 215 28 q 21 125 21 28 m 21 375 q 118 472 21 472 q 215 375 215 472 q 118 278 215 278 q 21 375 21 278 z "},";":{"ha":236,"x_min":21,"x_max":215,"o":"m 118 222 q 215 125 215 222 q 206 59 215 83 q 174 14 196 35 q 142 -10 160 0 q 106 -26 124 -19 q 63 -42 85 -35 l 49 0 q 71 10 60 4 q 90 23 81 15 q 104 42 99 31 q 44 63 68 42 q 21 125 21 83 q 118 222 21 222 m 21 375 q 118 472 21 472 q 215 375 215 472 q 118 278 215 278 q 21 375 21 278 z "},".":{"ha":236,"x_min":21,"x_max":215,"o":"m 21 97 q 118 194 21 194 q 215 97 215 194 q 118 0 215 0 q 21 97 21 0 z "},",":{"ha":236,"x_min":21,"x_max":215,"o":"m 118 208 q 215 111 215 208 q 206 45 215 69 q 174 0 196 21 q 142 -24 160 -14 q 106 -40 124 -33 q 63 -56 85 -49 l 49 -14 q 71 -4 60 -10 q 90 9 81 1 q 104 28 99 17 q 44 49 68 28 q 21 111 21 69 q 118 208 21 208 z "},"!":{"ha":250,"x_min":21,"x_max":229,"o":"m 21 750 q 53 753 36 751 q 87 755 68 754 q 125 757 106 756 q 229 764 171 760 l 201 208 l 49 208 l 21 750 m 42 83 q 60 146 42 125 q 125 167 78 167 q 190 146 172 167 q 208 83 208 125 q 190 21 208 42 q 125 0 172 0 q 60 21 78 0 q 42 83 42 42 z "},"\"":{"ha":389,"x_min":14,"x_max":375,"o":"m 375 833 l 347 514 l 236 514 l 208 833 l 375 833 m 14 833 l 181 833 l 153 514 l 42 514 l 14 833 z "},"#":{"ha":986,"x_min":14,"x_max":972,"o":"m 97 319 l 203 321 l 253 431 l 125 431 l 208 625 l 343 628 l 403 757 l 625 757 l 560 632 l 683 633 l 743 750 l 931 764 l 872 638 l 972 639 l 903 431 l 779 431 l 733 331 l 875 333 l 806 125 l 642 128 l 583 0 l 361 0 l 428 131 l 306 133 l 240 7 l 53 -7 l 118 136 l 14 139 l 97 319 m 403 325 l 528 326 l 581 431 l 457 431 l 403 325 z "},"$":{"ha":543,"x_min":24,"x_max":524,"o":"m 194 958 l 344 972 l 350 775 q 410 765 382 771 q 460 751 439 758 q 503 736 485 744 l 489 514 q 471 529 481 522 q 449 542 461 536 q 419 552 436 549 q 375 556 401 556 q 317 544 343 556 q 292 500 292 532 q 328 442 292 474 q 408 374 364 411 q 488 291 451 336 q 524 194 524 246 q 509 121 524 153 q 471 65 494 89 q 415 24 447 40 q 347 0 382 8 l 363 -194 l 183 -194 l 192 -11 q 122 4 151 -7 q 74 26 93 15 q 38 56 51 40 l 24 278 q 100 223 64 238 q 181 208 136 208 q 248 226 232 208 q 264 264 264 243 q 226 314 264 285 q 144 382 189 343 q 61 471 99 421 q 24 583 24 521 q 68 700 24 654 q 190 765 113 746 l 194 958 z "},"%":{"ha":736,"x_min":21,"x_max":715,"o":"m 451 750 l 611 764 l 285 0 l 97 0 l 451 750 m 326 611 q 292 493 326 528 q 174 458 257 458 q 56 493 90 458 q 21 611 21 528 q 56 729 21 694 q 174 764 90 764 q 292 729 257 764 q 326 611 326 694 m 715 153 q 681 35 715 69 q 563 0 646 0 q 444 35 479 0 q 410 153 410 69 q 444 271 410 236 q 563 306 479 306 q 681 271 646 306 q 715 153 715 236 m 132 611 q 174 569 132 569 q 215 611 215 569 q 174 653 215 653 q 132 611 132 653 m 521 153 q 563 111 521 111 q 604 153 604 111 q 563 194 604 194 q 521 153 521 194 z "},"&":{"ha":708,"x_min":14,"x_max":688,"o":"m 490 42 q 401 15 458 31 q 271 0 344 0 q 193 9 238 0 q 109 44 149 18 q 42 115 69 69 q 14 236 14 161 q 47 368 14 301 q 147 479 79 435 l 76 569 l 132 764 l 576 792 l 590 583 l 281 593 l 688 125 l 535 -14 l 490 42 m 285 222 q 342 231 314 222 l 211 397 q 174 319 174 371 q 185 275 174 293 q 214 245 197 257 q 250 228 231 233 q 285 222 269 222 z "},"(":{"ha":417,"x_min":21,"x_max":465,"o":"m 451 819 q 383 805 419 819 q 316 743 347 790 q 264 608 285 696 q 243 375 243 521 q 266 131 243 224 q 322 -12 289 39 q 390 -80 354 -62 q 451 -97 425 -97 l 438 -306 q 273 -268 349 -306 q 141 -148 197 -231 q 53 67 85 -65 q 21 389 21 199 q 53 663 21 547 q 144 853 86 778 q 285 964 203 928 q 465 1000 367 1000 l 451 819 z "},"*":{"ha":431,"x_min":21,"x_max":410,"o":"m 292 874 l 272 768 l 410 778 l 396 625 l 310 654 l 404 547 l 257 474 l 215 601 l 174 474 l 26 547 l 121 654 l 35 625 l 21 778 l 158 768 l 139 874 l 292 874 z "},")":{"ha":417,"x_min":-49,"x_max":396,"o":"m -49 1000 q 132 964 50 1000 q 272 853 214 928 q 363 663 331 778 q 396 389 396 547 q 364 67 396 199 q 276 -148 332 -65 q 144 -268 219 -231 q -21 -306 68 -306 l -35 -97 q 27 -80 -8 -97 q 95 -12 63 -62 q 151 131 128 39 q 174 375 174 224 q 153 608 174 521 q 101 743 132 696 q 33 805 69 790 q -35 819 -4 819 l -49 1000 z "},"'":{"ha":194,"x_min":14,"x_max":181,"o":"m 181 833 l 153 514 l 42 514 l 14 833 l 181 833 z "},"+":{"ha":533,"x_min":21,"x_max":507,"o":"m 507 278 l 358 282 l 354 97 l 174 111 l 168 288 l 21 292 l 35 472 l 164 475 l 160 625 l 368 625 l 364 482 l 507 486 l 507 278 z "},"-":{"ha":533,"x_min":21,"x_max":507,"o":"m 507 278 l 21 292 l 35 472 l 507 486 l 507 278 z "},"/":{"ha":535,"x_min":14,"x_max":528,"o":"m 368 750 l 528 764 l 201 0 l 14 0 l 368 750 z "},"[":{"ha":310,"x_min":21,"x_max":354,"o":"m 21 -292 l 35 1014 l 354 1000 l 354 819 l 217 813 l 228 -108 l 354 -97 l 354 -306 l 21 -292 z "},"]":{"ha":310,"x_min":-43,"x_max":290,"o":"m 83 -108 l 94 813 l -43 819 l -43 1000 l 276 1014 l 290 -292 l 289 -292 l -43 -306 l -43 -97 l 83 -108 z "},"\\":{"ha":517,"x_min":1,"x_max":515,"o":"m 328 0 l 1 764 l 161 750 l 515 0 l 328 0 z "},"^":{"ha":444,"x_min":14,"x_max":431,"o":"m 431 514 l 264 500 l 222 694 l 181 500 l 14 514 l 167 833 l 278 833 l 431 514 z "},"=":{"ha":536,"x_min":21,"x_max":515,"o":"m 501 208 l 515 83 l 29 69 l 29 222 l 501 208 m 507 292 l 21 306 l 35 431 l 507 444 l 507 292 z "},"<":{"ha":479,"x_min":19,"x_max":464,"o":"m 450 528 l 464 319 l 188 247 l 464 194 l 450 -14 l 19 153 l 19 333 l 450 528 z "},">":{"ha":482,"x_min":17,"x_max":461,"o":"m 31 528 l 461 333 l 461 153 l 31 -14 l 17 194 l 293 247 l 17 319 l 31 528 z "},"?":{"ha":501,"x_min":26,"x_max":485,"o":"m 26 736 q 83 757 51 747 q 149 771 111 764 q 235 778 188 778 q 326 762 282 778 q 406 715 371 746 q 463 637 442 683 q 485 528 485 590 q 471 451 485 483 q 437 397 457 419 q 393 356 417 374 q 349 322 369 339 q 316 284 329 304 q 304 236 303 264 l 124 236 q 145 319 124 288 q 193 376 167 351 q 241 426 219 401 q 263 486 263 450 q 235 542 263 528 q 165 556 207 556 q 108 551 133 556 q 64 542 82 547 q 26 528 42 536 l 26 736 m 103 104 q 126 180 103 151 q 207 208 149 208 q 288 185 264 208 q 311 104 311 163 q 288 23 311 46 q 207 0 264 0 q 126 28 149 0 q 103 104 103 57 z "},"_":{"ha":533,"x_min":21,"x_max":507,"o":"m 507 -14 l 21 0 l 35 69 l 507 83 l 507 -14 z "},"@":{"ha":978,"x_min":17,"x_max":961,"o":"m 675 569 q 675 396 669 472 q 681 331 676 363 q 694 276 686 300 q 713 237 701 251 q 739 222 724 222 q 785 264 775 222 q 794 389 794 306 q 778 490 794 440 q 729 580 763 540 q 643 643 696 619 q 518 667 590 667 q 378 643 436 667 q 283 580 319 619 q 228 490 246 540 q 211 389 211 440 q 226 277 211 332 q 274 179 240 222 q 363 110 307 136 q 503 83 419 83 l 503 -111 q 286 -70 378 -111 q 135 38 194 -29 q 46 193 75 106 q 17 375 17 281 q 48 566 17 479 q 139 715 79 653 q 287 813 199 778 q 489 847 375 847 q 713 807 622 847 q 858 701 803 767 q 937 554 913 636 q 961 389 961 472 q 949 263 961 324 q 909 157 938 203 q 835 83 881 111 q 724 56 790 56 q 674 59 703 56 q 619 77 646 63 q 569 121 592 92 q 536 200 546 150 q 497 176 519 185 q 447 167 475 167 q 308 217 364 167 q 251 361 253 267 q 266 447 251 408 q 307 512 281 485 q 369 554 333 539 q 447 569 406 569 q 503 561 479 569 q 543 540 528 553 l 544 556 l 675 569 m 489 292 q 531 307 515 292 l 538 449 q 523 456 531 453 q 503 458 515 458 q 445 438 471 458 q 418 375 419 417 q 425 333 418 349 q 443 308 432 317 q 466 295 454 299 q 489 292 478 292 z "},"{":{"ha":403,"x_min":21,"x_max":451,"o":"m 438 792 q 374 783 396 792 q 343 742 353 774 q 331 651 333 711 q 326 486 329 590 q 320 447 326 465 q 298 411 314 428 q 256 378 282 394 q 188 347 229 363 q 254 316 229 332 q 292 283 279 300 q 308 248 304 267 q 313 208 313 229 q 319 39 313 104 q 340 -62 325 -26 q 383 -112 356 -99 q 451 -125 410 -125 l 439 -306 q 288 -275 344 -306 q 199 -187 231 -244 q 156 -48 167 -131 q 146 139 146 35 q 140 188 146 165 q 120 228 135 211 q 81 254 106 244 q 21 264 57 264 l 21 444 q 120 474 94 444 q 146 556 146 503 q 158 742 146 660 q 205 882 171 825 q 298 969 239 939 q 451 1000 357 1000 l 438 792 z "},"}":{"ha":403,"x_min":-49,"x_max":382,"o":"m -49 1000 q 104 969 44 1000 q 198 882 164 939 q 244 742 232 825 q 257 556 257 660 q 283 474 257 503 q 382 444 308 444 l 382 264 q 322 254 346 264 q 283 228 297 244 q 263 188 268 211 q 257 139 257 165 q 247 -48 257 35 q 204 -187 236 -131 q 115 -275 172 -244 q -36 -306 57 -306 l -49 -125 q 20 -112 -7 -125 q 63 -62 47 -99 q 84 39 78 -26 q 90 208 90 104 q 94 248 90 229 q 111 283 99 267 q 149 316 124 300 q 215 347 174 332 q 147 378 174 363 q 105 411 121 394 q 83 447 89 428 q 76 486 76 465 q 72 651 74 590 q 60 742 69 711 q 28 783 50 774 q -35 792 7 792 l -49 1000 z "},"|":{"ha":250,"x_min":21,"x_max":229,"o":"m 32 986 l 213 1000 l 229 -306 l 21 -306 l 32 986 z "},"‚":{"ha":194,"x_min":14,"x_max":181,"o":"m 181 833 l 153 514 l 42 514 l 14 833 l 181 833 z "},"„":{"ha":389,"x_min":14,"x_max":375,"o":"m 14 833 l 181 833 l 153 514 q 135 513 153 513 q 97 513 118 513 q 60 513 76 513 q 42 514 43 513 l 14 833 m 375 833 l 347 514 l 236 514 l 208 833 l 375 833 z "},"~":{"ha":654,"x_min":21,"x_max":632,"o":"m 618 389 q 582 368 604 376 q 531 353 563 360 q 451 347 500 347 q 394 356 425 347 q 330 374 364 364 q 260 394 296 385 q 188 403 224 403 q 125 394 151 403 q 82 375 99 386 q 49 347 63 363 l 21 542 q 58 569 35 557 q 110 589 78 581 q 189 597 142 597 q 259 588 225 597 q 325 569 293 579 q 388 550 357 558 q 451 542 419 542 q 525 550 492 542 q 582 569 558 558 q 632 597 610 582 l 618 389 z "},"€":{"ha":650,"x_min":17,"x_max":628,"o":"m 31 347 l 44 347 l 46 415 l 17 417 l 31 486 l 57 486 q 124 637 78 579 q 226 726 171 694 q 335 767 281 757 q 426 778 390 778 q 508 771 474 778 q 567 757 543 764 q 613 736 593 747 l 600 528 q 567 542 586 536 q 524 551 550 547 q 461 556 497 556 q 374 539 413 556 q 308 494 336 522 l 475 500 l 475 403 l 263 408 l 261 354 l 475 361 l 475 264 l 296 269 q 365 223 322 238 q 461 208 407 208 q 524 215 497 208 q 571 229 551 221 q 607 250 592 238 l 628 28 q 575 7 604 15 q 514 -8 550 -1 q 433 -14 478 -14 q 327 0 386 -14 q 212 47 268 14 q 112 137 156 81 q 51 276 68 193 l 17 278 l 31 347 z "},"…":{"ha":764,"x_min":21,"x_max":743,"o":"m 21 97 q 118 194 21 194 q 215 97 215 194 q 118 0 215 0 q 21 97 21 0 m 285 97 q 382 194 285 194 q 479 97 479 194 q 382 0 479 0 q 285 97 285 0 m 549 97 q 646 194 549 194 q 743 97 743 194 q 646 0 743 0 q 549 97 549 0 z "},"‰":{"ha":1056,"x_min":21,"x_max":1035,"o":"m 451 750 l 611 764 l 285 0 l 97 0 l 451 750 m 326 611 q 292 493 326 528 q 174 458 257 458 q 56 493 90 458 q 21 611 21 528 q 56 729 21 694 q 174 764 90 764 q 292 729 257 764 q 326 611 326 694 m 715 153 q 681 35 715 69 q 563 0 646 0 q 444 35 479 0 q 410 153 410 69 q 444 271 410 236 q 563 306 479 306 q 681 271 646 306 q 715 153 715 236 m 1035 153 q 1000 35 1035 69 q 882 0 965 0 q 764 35 799 0 q 729 153 729 69 q 764 271 729 236 q 882 306 799 306 q 1000 271 965 306 q 1035 153 1035 236 m 840 153 q 882 111 840 111 q 924 153 924 111 q 882 194 924 194 q 840 153 840 194 m 521 153 q 563 111 521 111 q 604 153 604 111 q 563 194 604 194 q 521 153 521 194 m 132 611 q 174 569 132 569 q 215 611 215 569 q 174 653 215 653 q 132 611 132 653 z "},"‘":{"ha":194,"x_min":14,"x_max":181,"o":"m 181 833 l 153 514 l 42 514 l 14 833 l 181 833 z "},"’":{"ha":194,"x_min":14,"x_max":181,"o":"m 181 833 l 153 514 l 42 514 l 14 833 l 181 833 z "},"“":{"ha":389,"x_min":14,"x_max":375,"o":"m 375 833 l 347 514 l 236 514 l 208 833 l 375 833 m 14 833 l 181 833 l 153 514 l 42 514 l 14 833 z "},"”":{"ha":389,"x_min":14,"x_max":375,"o":"m 375 833 l 347 514 l 236 514 l 208 833 l 375 833 m 14 833 l 181 833 l 153 514 l 42 514 l 14 833 z "},"•":{"ha":278,"x_min":14,"x_max":264,"o":"m 14 375 q 46 468 14 436 q 139 500 78 500 q 232 468 200 500 q 264 375 264 436 q 232 282 264 314 q 139 250 200 250 q 46 282 78 250 q 14 375 14 314 z "},"™":{"ha":757,"x_min":15,"x_max":743,"o":"m 347 757 l 451 764 l 519 575 l 526 575 l 594 757 l 699 764 l 743 351 l 610 351 l 603 510 l 565 404 l 489 404 l 443 507 l 438 351 l 303 351 l 347 757 m 15 757 l 315 764 l 307 653 l 229 650 l 235 351 l 94 351 l 100 646 l 22 644 l 15 757 z "},"ˇ":{"ha":389,"x_min":14,"x_max":375,"o":"m 375 958 l 236 792 l 153 792 l 14 958 l 139 972 l 194 917 l 250 972 l 375 958 z "},"˘":{"ha":389,"x_min":14,"x_max":375,"o":"m 375 950 q 366 897 375 924 q 336 848 357 869 q 280 813 315 826 q 193 799 244 799 q 112 813 146 799 q 56 848 78 826 q 24 897 35 869 q 14 950 14 924 l 139 964 q 151 924 139 939 q 194 908 163 908 q 238 924 226 908 q 250 964 250 939 l 375 950 z "},"¨":{"ha":364,"x_min":14,"x_max":350,"o":"m 14 881 q 90 957 14 957 q 167 881 167 957 q 90 804 167 804 q 14 881 14 804 m 197 881 q 274 957 197 957 q 350 881 350 957 q 274 804 350 804 q 197 881 197 804 z "},"´":{"ha":319,"x_min":14,"x_max":306,"o":"m 306 847 l 28 806 l 14 889 l 250 1000 l 306 847 z "},"˝":{"ha":319,"x_min":14,"x_max":306,"o":"m 306 958 l 194 778 l 125 799 l 208 1000 l 306 958 m 153 958 l 83 785 l 14 806 l 56 1000 l 153 958 z "},"˛":{"ha":257,"x_min":14,"x_max":243,"o":"m 163 0 q 115 -11 131 0 q 100 -35 100 -22 q 115 -58 100 -47 q 163 -69 131 -69 q 214 -60 192 -69 q 233 -49 225 -54 l 243 -174 q 219 -185 233 -179 q 149 -194 193 -194 q 48 -158 82 -194 q 14 -76 14 -121 q 47 5 14 -32 q 149 42 81 42 l 163 0 z "},"¸":{"ha":257,"x_min":14,"x_max":243,"o":"m 108 42 q 210 5 176 42 q 243 -76 243 -32 q 209 -158 243 -121 q 108 -194 175 -194 q 38 -185 64 -194 q 14 -174 24 -179 l 25 -49 q 44 -60 33 -54 q 94 -69 67 -69 q 142 -58 126 -69 q 157 -35 157 -47 q 141 -11 157 -22 q 94 0 125 0 l 108 42 z "},"˙":{"ha":181,"x_min":14,"x_max":167,"o":"m 14 881 q 90 957 14 957 q 167 881 167 957 q 90 804 167 804 q 14 881 14 804 z "},"`":{"ha":319,"x_min":14,"x_max":306,"o":"m 306 889 l 292 792 l 14 847 l 69 1000 l 306 889 z "},"¯":{"ha":361,"x_min":14,"x_max":346,"o":"m 346 819 l 26 833 l 14 931 l 332 944 l 346 819 z "},"ˆ":{"ha":389,"x_min":14,"x_max":375,"o":"m 375 803 l 250 789 l 194 844 l 139 789 l 14 803 l 153 969 l 236 969 l 375 803 z "},"ƒ":{"ha":408,"x_min":-69,"x_max":403,"o":"m 250 267 l 250 97 q 239 -31 250 29 q 194 -137 228 -92 q 98 -210 161 -183 q -69 -236 35 -236 l -69 -28 q -29 -26 -49 -28 q 6 -17 -10 -25 q 31 7 21 -10 q 42 56 40 24 q 43 124 42 88 q 45 193 44 154 q 49 275 46 232 l 14 276 l 14 388 l 53 389 q 55 471 54 436 q 56 514 56 506 q 116 707 56 650 q 292 764 176 764 l 389 764 l 403 569 l 361 569 q 312 567 332 569 q 279 548 292 564 q 260 497 267 532 q 251 397 254 461 l 361 401 l 347 264 l 250 267 z "},"¢":{"ha":499,"x_min":17,"x_max":482,"o":"m 17 347 q 66 490 17 431 q 206 571 115 549 l 210 792 l 360 806 l 367 579 q 415 569 394 575 q 451 556 436 563 q 482 542 468 549 l 468 431 q 438 446 467 433 q 350 458 408 458 q 261 429 297 458 q 225 347 225 400 q 256 258 225 294 q 350 222 288 222 q 438 229 406 222 q 468 236 454 232 l 468 97 q 442 86 457 92 q 409 78 428 82 q 363 71 390 74 l 376 -125 l 199 -125 l 208 82 q 67 177 117 107 q 17 347 17 247 z "},"©":{"ha":653,"x_min":14,"x_max":639,"o":"m 14 521 q 39 658 14 599 q 108 756 64 717 q 209 814 151 794 q 333 833 267 833 q 456 814 400 833 q 553 756 513 794 q 616 658 593 717 q 639 521 639 599 q 616 384 639 443 q 553 286 593 325 q 456 228 513 247 q 333 208 400 208 q 209 228 267 208 q 108 286 151 247 q 39 384 64 325 q 14 521 14 443 m 332 319 q 478 372 429 319 q 528 521 528 424 q 478 670 528 618 q 332 722 429 722 q 180 670 235 722 q 125 521 125 618 q 180 372 125 424 q 332 319 235 319 m 167 528 q 215 640 167 599 q 333 681 263 681 q 375 676 357 681 q 406 667 393 672 q 431 653 421 661 l 417 569 q 402 577 417 571 q 361 583 388 583 q 310 569 329 583 q 292 528 292 554 q 310 485 292 497 q 361 472 329 472 q 401 479 385 472 q 417 486 410 482 l 431 375 q 404 368 418 371 q 347 361 379 361 q 217 405 268 361 q 167 528 167 449 z "},"®":{"ha":653,"x_min":14,"x_max":639,"o":"m 14 521 q 39 658 14 599 q 108 756 64 717 q 209 814 151 794 q 333 833 267 833 q 456 814 400 833 q 553 756 513 794 q 616 658 593 717 q 639 521 639 599 q 616 384 639 443 q 553 286 593 325 q 456 228 513 247 q 333 208 400 208 q 209 228 267 208 q 108 286 151 247 q 39 384 64 325 q 14 521 14 443 m 332 319 q 478 372 429 319 q 528 521 528 424 q 478 670 528 618 q 332 722 429 722 q 180 670 235 722 q 125 521 125 618 q 180 372 125 424 q 332 319 235 319 m 226 585 l 213 578 l 208 681 q 226 688 215 683 q 252 692 236 690 q 292 694 268 694 q 348 688 321 694 q 397 668 375 682 q 431 632 418 654 q 444 579 444 610 q 433 521 444 547 q 394 479 421 494 l 449 363 l 353 363 l 326 458 l 310 458 l 313 361 l 222 361 l 226 585 m 361 551 q 356 572 361 564 q 342 585 350 579 q 324 592 333 590 q 307 596 315 594 l 308 500 q 349 517 336 501 q 361 551 361 532 z "},"¡":{"ha":250,"x_min":21,"x_max":229,"o":"m 21 -194 q 53 -197 21 -196 q 125 -201 85 -199 q 229 -208 171 -204 l 201 347 l 49 347 l 21 -194 m 42 472 q 60 535 42 514 q 125 556 78 556 q 190 535 172 556 q 208 472 208 514 q 190 410 208 431 q 125 389 172 389 q 60 410 78 389 q 42 472 42 431 z "},"¿":{"ha":504,"x_min":21,"x_max":479,"o":"m 174 472 q 192 535 174 514 q 257 556 210 556 q 322 535 304 556 q 340 472 340 514 q 322 410 340 431 q 257 389 304 389 q 192 410 210 389 q 174 472 174 431 m 479 -160 q 422 -181 454 -172 q 356 -195 394 -189 q 271 -201 318 -201 q 179 -186 224 -201 q 99 -140 135 -171 q 42 -61 64 -108 q 21 49 21 -14 q 33 126 21 93 q 63 182 44 158 q 101 224 81 206 q 140 261 122 243 q 169 299 158 279 q 181 347 181 319 l 333 347 q 319 262 333 294 q 288 203 306 229 q 257 151 271 176 q 243 90 243 126 q 250 51 243 65 q 269 30 257 36 q 299 22 282 24 q 335 21 315 21 l 340 21 q 397 25 372 21 q 440 35 421 29 q 479 49 461 40 l 479 -160 z "},"˜":{"ha":431,"x_min":14,"x_max":417,"o":"m 278 917 q 308 923 293 917 q 335 938 324 929 q 361 958 349 946 l 417 861 q 385 826 403 842 q 346 802 369 813 q 292 792 322 792 q 256 800 271 792 q 227 819 242 808 q 196 838 213 829 q 153 847 179 847 q 117 840 132 847 q 90 826 101 833 q 69 806 78 817 l 14 903 q 51 938 29 922 q 95 961 69 950 q 153 972 121 972 q 194 963 179 972 q 220 944 208 954 q 244 925 232 933 q 278 917 257 917 z "},"°":{"ha":363,"x_min":17,"x_max":346,"o":"m 17 608 q 30 681 17 650 q 66 732 43 711 q 119 763 89 753 q 185 774 150 774 q 301 733 256 774 q 346 608 346 692 q 301 485 346 525 q 185 444 256 444 q 119 455 150 444 q 66 485 89 465 q 30 536 43 506 q 17 608 17 567 m 182 540 q 250 610 250 540 q 182 679 250 679 q 130 661 149 679 q 111 610 111 643 q 130 558 111 576 q 182 540 149 540 z "},"̊":{"ha":306,"x_min":14,"x_max":292,"o":"m 14 903 q 56 1008 14 974 q 156 1042 97 1042 q 253 1008 215 1042 q 292 903 292 974 q 253 798 292 832 q 156 764 215 764 q 56 798 97 764 q 14 903 14 832 m 154 861 q 194 903 194 861 q 154 944 194 944 q 111 903 111 944 q 154 861 111 861 z "},"†":{"ha":525,"x_min":17,"x_max":503,"o":"m 503 278 l 360 282 l 367 -306 l 158 -306 l 163 288 l 17 292 l 31 472 l 164 476 l 169 986 l 350 1000 l 357 482 l 503 486 l 503 278 z "},"‡":{"ha":528,"x_min":17,"x_max":511,"o":"m 503 500 l 357 504 l 361 242 l 497 238 l 511 113 l 363 108 l 368 -306 l 160 -306 l 163 103 l 25 99 l 25 251 l 164 247 l 167 510 l 17 514 l 31 639 l 168 643 l 171 986 l 351 1000 l 356 649 l 503 653 l 503 500 z "},"‹":{"ha":371,"x_min":17,"x_max":350,"o":"m 31 500 l 350 333 l 350 153 l 31 -14 l 17 167 l 238 247 l 17 319 l 31 500 z "},"›":{"ha":371,"x_min":22,"x_max":356,"o":"m 342 500 l 356 319 l 135 247 l 356 167 l 342 -14 l 22 153 l 22 333 l 342 500 z "},"˚":{"ha":306,"x_min":14,"x_max":292,"o":"m 14 903 q 56 1008 14 974 q 156 1042 97 1042 q 253 1008 215 1042 q 292 903 292 974 q 253 798 292 832 q 156 764 215 764 q 56 798 97 764 q 14 903 14 832 m 154 861 q 194 903 194 861 q 154 944 194 944 q 111 903 111 944 q 154 861 111 861 z "},"¥":{"ha":617,"x_min":17,"x_max":600,"o":"m 221 204 l 222 232 l 128 236 l 142 306 l 211 308 l 17 750 l 232 764 l 322 444 l 385 750 l 600 764 l 421 317 l 503 319 l 503 222 l 408 225 l 410 197 l 494 194 l 508 125 l 413 121 l 419 0 l 211 0 l 217 114 l 133 111 l 133 208 l 221 204 z "},"¦":{"ha":246,"x_min":21,"x_max":225,"o":"m 21 -306 l 22 264 l 219 278 l 225 -306 l 21 -306 m 24 417 l 32 986 l 213 1000 l 218 431 l 24 417 z "},"£":{"ha":543,"x_min":22,"x_max":522,"o":"m 342 310 q 328 241 340 275 q 267 181 315 207 l 522 201 l 508 0 l 22 0 l 22 139 q 97 163 64 139 q 135 250 131 188 q 136 269 136 258 q 136 291 136 279 q 138 318 136 303 l 106 319 l 106 431 l 144 432 q 147 482 146 460 q 147 514 147 504 q 208 707 147 650 q 383 764 268 764 l 494 764 l 508 569 l 453 569 q 369 536 392 569 q 343 440 347 503 l 453 444 l 439 307 l 342 310 z "},"§":{"ha":429,"x_min":17,"x_max":413,"o":"m 413 389 q 395 309 413 344 q 331 254 378 274 q 388 197 364 228 q 413 125 413 165 q 353 14 413 42 q 190 -14 294 -14 q 96 -7 131 -14 q 65 0 78 -4 l 65 167 q 93 160 78 163 q 163 153 121 153 q 231 161 215 153 q 246 181 246 169 q 229 210 246 194 q 187 242 213 225 q 131 278 161 258 q 76 319 101 297 q 33 365 50 340 q 17 417 17 389 q 31 473 17 449 q 82 511 46 497 q 35 561 54 531 q 17 639 17 592 q 76 745 17 713 q 239 778 135 778 q 294 776 271 778 q 332 771 317 774 q 364 764 350 767 l 364 597 l 336 604 q 305 609 322 607 q 267 611 288 611 q 199 603 214 611 q 183 583 183 594 q 200 558 183 569 q 242 533 217 546 q 298 507 268 521 q 353 476 328 493 q 396 438 379 460 q 413 389 413 417 m 260 403 q 243 431 260 417 q 185 418 200 428 q 169 389 169 408 q 180 363 169 375 q 208 336 190 350 q 250 360 240 343 q 260 403 260 378 z "},"÷":{"ha":533,"x_min":21,"x_max":507,"o":"m 507 458 l 35 444 l 21 319 l 507 306 l 507 458 m 171 576 q 268 674 171 674 q 365 576 365 674 q 268 479 365 479 q 171 576 171 479 m 171 188 q 268 285 171 285 q 365 188 365 285 q 268 90 365 90 q 171 188 171 90 z "},"ª":{"ha":438,"x_min":17,"x_max":417,"o":"m 274 453 q 188 421 239 421 q 121 433 151 421 q 67 469 90 446 q 30 526 43 492 q 17 603 17 560 q 61 714 17 674 q 174 754 106 754 q 246 729 221 754 q 281 681 271 704 l 283 754 l 407 764 l 417 421 l 274 421 l 274 453 m 221 526 q 251 535 236 526 q 276 554 267 543 l 279 629 q 258 643 272 636 q 221 650 243 650 q 180 638 200 650 q 160 593 160 625 q 180 542 160 557 q 221 526 200 526 z "},"·":{"ha":236,"x_min":21,"x_max":215,"o":"m 21 375 q 118 472 21 472 q 215 375 215 472 q 118 278 215 278 q 21 375 21 278 z "},"²":{"ha":299,"x_min":17,"x_max":278,"o":"m 36 758 q 63 768 47 763 q 93 774 75 771 q 133 778 111 778 q 181 770 156 778 q 227 748 206 763 q 263 712 249 733 q 278 661 278 690 q 269 610 278 632 q 245 569 260 588 q 213 538 231 551 q 179 514 196 525 q 238 517 211 515 q 276 521 264 518 l 276 415 l 24 415 l 17 513 q 36 523 18 515 q 76 544 54 531 q 115 575 97 557 q 132 615 132 593 q 119 651 132 640 q 88 661 107 661 q 67 659 76 661 q 51 654 58 657 q 36 647 43 650 l 36 758 z "},"³":{"ha":256,"x_min":18,"x_max":240,"o":"m 32 764 q 54 771 40 767 q 81 776 65 774 q 115 778 96 778 q 158 772 136 778 q 199 755 181 767 q 228 725 217 743 q 240 681 240 707 q 222 628 240 649 q 171 597 203 608 q 222 567 203 586 q 240 514 240 549 q 208 443 240 472 q 110 414 176 414 q 69 417 86 414 q 43 422 53 419 q 25 431 31 426 l 18 556 q 38 538 26 544 q 60 526 47 531 q 88 521 72 521 q 129 538 129 521 q 122 547 129 543 q 105 552 115 550 q 82 555 94 554 q 60 556 69 556 l 60 625 q 103 631 92 625 q 115 646 115 638 q 74 667 115 667 q 51 665 61 667 q 33 660 40 663 q 18 653 25 656 l 32 764 z "},"ß":{"ha":579,"x_min":21,"x_max":563,"o":"m 368 208 q 339 252 368 240 q 257 264 310 264 l 257 417 q 326 452 299 418 q 354 542 354 486 q 335 601 354 578 q 285 625 317 625 q 263 621 274 625 q 242 604 251 617 q 226 567 232 592 q 219 500 219 542 l 229 -97 l 21 -97 q 25 103 24 -1 q 29 297 26 208 q 35 500 32 401 q 99 700 40 636 q 285 764 158 764 q 357 755 315 764 q 436 721 399 746 q 500 653 474 696 q 526 542 526 610 q 510 453 526 488 q 472 398 493 418 q 433 370 451 378 q 410 361 414 363 q 435 356 411 361 q 488 333 460 350 q 539 283 515 317 q 563 194 563 250 q 547 115 563 153 q 497 49 531 78 q 410 3 463 19 q 285 -14 357 -14 l 285 153 q 349 170 331 153 q 368 208 368 188 z "},"Þ":{"ha":621,"x_min":21,"x_max":604,"o":"m 21 0 l 35 750 l 215 764 l 218 596 q 242 631 228 614 q 277 663 257 649 q 324 685 297 676 q 382 694 350 694 q 463 680 424 694 q 534 632 503 665 q 585 542 565 599 q 604 403 604 486 q 585 245 604 308 q 531 142 565 182 q 451 86 497 103 q 354 69 406 69 q 226 117 276 69 l 229 0 l 21 0 m 306 542 q 252 527 274 542 q 219 500 231 513 l 224 264 q 260 235 239 247 q 306 222 282 222 q 396 389 396 222 q 390 466 396 436 q 374 513 385 496 q 346 535 363 529 q 306 542 329 542 z "},"þ":{"ha":621,"x_min":21,"x_max":604,"o":"m 21 0 l 35 750 l 215 764 l 219 529 q 278 594 239 564 q 382 625 318 625 q 473 610 432 625 q 543 566 514 594 q 588 496 572 538 q 604 403 604 454 q 585 291 604 340 q 531 208 565 242 q 451 157 497 175 q 354 139 406 139 q 225 188 274 139 l 229 0 l 21 0 m 306 472 q 253 462 274 472 q 221 442 232 451 l 222 335 q 260 305 238 318 q 306 292 282 292 q 337 297 321 292 q 366 315 353 303 q 388 344 379 326 q 396 389 396 363 q 388 428 396 413 q 366 454 379 444 q 337 468 353 464 q 306 472 321 472 z "},"±":{"ha":519,"x_min":21,"x_max":493,"o":"m 35 528 l 196 532 l 201 694 l 326 708 l 331 536 l 493 542 l 493 389 l 335 393 l 340 236 l 188 236 l 192 397 l 21 403 l 35 528 m 21 69 l 35 194 l 493 208 l 493 56 l 21 69 z "},"«":{"ha":731,"x_min":22,"x_max":715,"o":"m 342 500 l 356 319 l 135 247 l 356 167 l 342 -14 l 22 153 l 22 333 l 342 500 m 701 500 l 715 319 l 494 247 l 715 167 l 701 -14 l 382 153 l 382 333 l 701 500 z "},"»":{"ha":731,"x_min":17,"x_max":710,"o":"m 390 500 l 710 333 l 710 153 l 390 -14 l 376 167 l 597 247 l 376 319 l 390 500 m 31 500 l 350 333 l 350 153 l 31 -14 l 17 167 l 238 247 l 17 319 l 31 500 z "},"ð":{"ha":672,"x_min":17,"x_max":656,"o":"m 206 611 l 321 665 q 253 681 290 681 l 267 778 q 365 764 319 778 q 451 726 411 750 l 583 788 l 600 708 l 525 668 q 622 519 588 604 q 656 347 656 435 q 635 203 656 269 q 572 88 614 136 q 468 13 531 40 q 322 -14 406 -14 q 210 0 265 -14 q 113 45 156 14 q 43 126 69 76 q 17 250 17 176 q 40 357 17 313 q 100 431 64 401 q 181 473 136 460 q 267 486 225 486 q 376 466 332 486 q 446 424 419 446 q 431 508 443 460 q 393 597 419 556 l 239 514 l 206 611 m 322 167 q 406 210 379 167 q 443 317 433 253 q 400 347 428 332 q 322 361 372 361 q 253 333 281 361 q 225 264 225 304 q 253 194 225 222 q 322 167 281 167 z "},"×":{"ha":544,"x_min":17,"x_max":528,"o":"m 17 89 l 203 267 l 39 444 l 107 494 l 272 335 l 439 494 l 506 444 l 342 267 l 528 89 l 444 6 l 272 192 l 100 6 l 17 89 z "},"ﬁ":{"ha":528,"x_min":17,"x_max":507,"o":"m 17 389 l 17 500 l 43 500 q 33 549 35 524 q 31 597 31 574 q 91 722 31 681 q 267 764 151 764 l 489 764 l 489 569 l 253 569 q 192 561 213 569 q 162 542 171 553 q 153 521 153 532 q 154 504 153 510 l 493 514 l 507 0 l 299 0 l 308 375 l 240 378 l 253 0 l 44 0 l 57 386 l 17 389 z "},"ﬂ":{"ha":565,"x_min":17,"x_max":544,"o":"m 43 501 q 33 549 36 524 q 31 597 31 574 q 91 722 31 681 q 267 764 151 764 l 531 764 l 544 0 l 336 0 l 346 569 l 253 569 q 194 562 215 569 q 164 544 174 554 q 153 523 154 533 q 153 506 151 513 l 308 514 l 308 375 l 240 378 l 253 0 l 44 0 l 57 386 l 17 389 l 17 500 l 43 501 z "},"Ω":{"ha":738,"x_min":22,"x_max":717,"o":"m 369 778 q 490 754 432 778 q 592 686 547 731 q 663 577 636 642 q 689 431 689 513 q 674 311 689 363 q 640 224 658 260 q 592 153 618 182 l 717 167 l 717 0 l 397 14 l 397 139 q 460 217 432 175 q 503 297 483 253 q 522 389 522 342 q 508 468 522 436 q 472 519 494 500 q 423 547 450 539 q 369 556 396 556 q 316 547 343 556 q 267 519 289 539 q 231 468 244 500 q 217 389 217 436 q 236 297 217 342 q 279 217 256 253 q 342 139 306 175 l 342 14 l 22 0 l 22 167 l 147 153 q 99 224 119 182 q 65 311 79 260 q 50 431 50 363 q 76 577 50 513 q 147 686 103 642 q 249 754 192 731 q 369 778 307 778 z "},"∫":{"ha":408,"x_min":-69,"x_max":403,"o":"m 250 97 q 239 -31 250 29 q 194 -137 228 -92 q 98 -210 161 -183 q -69 -236 35 -236 l -69 -28 q -29 -26 -49 -28 q 6 -17 -10 -25 q 31 7 21 -10 q 42 56 40 24 q 49 292 44 185 q 51 381 50 338 q 53 462 51 425 q 55 524 54 499 q 56 556 56 549 q 116 749 56 692 q 292 806 176 806 l 389 806 l 403 611 l 361 611 q 282 595 314 611 q 250 528 250 579 l 250 97 l 250 97 z "},"π":{"ha":606,"x_min":21,"x_max":581,"o":"m 581 514 l 581 306 l 542 306 l 551 0 l 343 0 l 351 311 l 243 314 l 253 0 l 44 0 l 53 318 l 24 319 l 21 500 l 581 514 z "},"∏":{"ha":556,"x_min":21,"x_max":535,"o":"m 32 750 l 518 764 l 535 0 l 326 0 l 335 560 l 217 564 l 229 0 l 21 0 l 32 750 z "},"∂":{"ha":603,"x_min":17,"x_max":586,"o":"m 197 778 q 363 740 290 778 q 485 640 436 701 q 560 502 535 579 q 586 347 586 425 q 572 220 586 285 q 526 103 558 156 q 440 19 493 51 q 308 -14 386 -14 q 199 0 251 -14 q 106 45 146 14 q 41 126 65 76 q 17 250 17 176 q 42 357 17 313 q 107 431 68 401 q 192 473 146 460 q 281 486 239 486 q 332 482 308 486 q 375 471 356 478 q 338 526 361 501 q 290 565 315 550 q 236 589 264 581 q 183 597 208 597 l 197 778 m 308 167 q 346 181 331 167 q 371 220 361 196 q 385 277 381 244 q 390 346 389 310 q 354 357 374 353 q 308 361 335 361 q 246 333 267 361 q 225 264 225 304 q 246 194 225 222 q 308 167 267 167 z "},"µ":{"ha":574,"x_min":21,"x_max":553,"o":"m 344 0 l 344 32 q 302 8 329 17 q 243 -1 275 -1 q 234 -1 239 -1 q 224 0 229 -1 l 229 -264 l 21 -264 l 35 486 l 215 500 l 219 235 q 257 151 229 178 q 313 125 285 125 q 349 143 336 125 l 358 486 l 539 500 l 553 0 l 344 0 z "},"≥":{"ha":371,"x_min":17,"x_max":350,"o":"m 31 500 l 350 333 l 350 153 l 31 -14 l 17 167 l 238 247 l 17 319 l 31 500 z "},"≤":{"ha":371,"x_min":22,"x_max":356,"o":"m 342 500 l 356 319 l 135 247 l 356 167 l 342 -14 l 22 153 l 22 333 l 342 500 z "},"¬":{"ha":788,"x_min":17,"x_max":767,"o":"m 31 472 l 753 486 l 767 69 l 558 69 l 565 281 l 17 292 l 31 472 z "},"√":{"ha":738,"x_min":26,"x_max":721,"o":"m 276 514 l 360 256 l 561 750 l 721 764 l 443 0 l 256 0 l 158 368 l 26 361 l 26 528 l 276 514 z "},"–":{"ha":533,"x_min":21,"x_max":507,"o":"m 507 278 l 21 292 l 35 472 l 507 486 l 507 278 z "},"—":{"ha":783,"x_min":21,"x_max":757,"o":"m 757 278 l 21 292 l 35 472 l 757 486 l 757 278 z "},"∆":{"ha":644,"x_min":17,"x_max":628,"o":"m 232 750 l 399 764 l 628 0 l 17 0 l 232 750 m 317 443 l 247 171 l 392 176 l 317 443 z "},"¶":{"ha":663,"x_min":17,"x_max":642,"o":"m 267 264 q 169 282 214 264 q 90 333 124 300 q 36 416 56 367 q 17 528 17 465 q 34 620 17 579 q 82 690 51 661 q 154 733 113 718 q 246 750 196 749 l 628 764 l 642 0 l 489 0 l 500 644 l 449 647 l 461 0 l 308 0 l 313 268 q 267 264 292 264 z "},"≠":{"ha":536,"x_min":21,"x_max":515,"o":"m 150 218 l 182 300 l 21 306 l 35 431 l 232 436 l 278 556 l 438 569 l 396 440 l 507 444 l 507 292 l 349 296 l 321 214 l 501 208 l 515 83 l 276 76 l 229 -69 l 42 -69 l 94 71 l 29 69 l 29 222 l 150 218 z "},"ł":{"ha":415,"x_min":10,"x_max":406,"o":"m 10 263 l 125 372 l 132 750 l 313 764 l 315 557 l 357 596 l 406 531 l 318 438 l 326 0 l 118 0 l 122 229 l 82 186 l 10 263 z "},"¤":{"ha":611,"x_min":17,"x_max":594,"o":"m 594 600 l 522 538 q 556 382 556 483 q 522 225 556 281 l 594 164 l 486 56 l 403 147 q 306 139 361 139 q 207 147 250 139 l 125 56 l 17 164 l 89 225 q 56 382 56 281 q 89 538 56 483 l 17 600 l 125 708 l 207 615 q 306 625 247 625 q 358 623 333 625 q 403 615 382 621 l 486 708 l 594 600 m 208 382 q 231 313 208 335 q 306 292 253 292 q 381 313 358 292 q 403 382 403 335 q 381 451 403 429 q 306 472 358 472 q 231 451 253 472 q 208 382 208 429 z "},"Ω":{"ha":738,"x_min":22,"x_max":717,"o":"m 369 778 q 490 754 432 778 q 592 686 547 731 q 663 577 636 642 q 689 431 689 513 q 674 311 689 363 q 640 224 658 260 q 592 153 618 182 l 717 167 l 717 0 l 397 14 l 397 139 q 460 217 432 175 q 503 297 483 253 q 522 389 522 342 q 508 468 522 436 q 472 519 494 500 q 423 547 450 539 q 369 556 396 556 q 316 547 343 556 q 267 519 289 539 q 231 468 244 500 q 217 389 217 436 q 236 297 217 342 q 279 217 256 253 q 342 139 306 175 l 342 14 l 22 0 l 22 167 l 147 153 q 99 224 119 182 q 65 311 79 260 q 50 431 50 363 q 76 577 50 513 q 147 686 103 642 q 249 754 192 731 q 369 778 307 778 z "},"¹":{"ha":196,"x_min":18,"x_max":176,"o":"m 56 419 l 58 663 l 18 656 l 24 757 l 171 764 l 176 419 l 56 419 z "},"ﬀ":{"ha":625,"x_min":17,"x_max":604,"o":"m 43 501 q 33 549 36 524 q 31 597 31 574 q 91 722 31 681 q 267 764 151 764 l 350 764 q 352 753 351 764 q 354 728 353 743 q 521 764 414 764 l 604 764 l 604 569 l 507 569 q 458 565 476 569 q 428 552 439 560 q 412 536 417 544 q 407 519 407 528 l 558 528 l 558 361 l 494 364 l 507 0 l 299 0 l 311 374 l 240 378 l 253 0 l 44 0 l 57 386 l 17 389 l 17 500 l 43 501 m 253 569 q 194 563 215 569 q 164 545 174 556 q 153 524 154 535 q 153 507 151 514 l 293 514 q 285 569 286 542 l 253 569 z "},"ﬃ":{"ha":783,"x_min":17,"x_max":763,"o":"m 253 569 q 194 563 215 569 q 164 545 174 556 q 153 524 154 535 q 153 507 151 514 l 294 515 q 289 542 290 528 q 286 569 288 556 l 253 569 m 240 376 l 253 0 l 44 0 l 57 386 l 17 389 l 17 500 l 43 501 q 33 549 36 524 q 31 597 31 574 q 91 722 31 681 q 267 764 151 764 l 350 764 q 352 753 351 764 q 354 726 353 743 q 522 764 413 764 l 744 764 l 744 569 l 508 569 q 460 565 479 569 q 429 553 440 560 q 414 538 418 546 q 408 521 410 529 l 531 528 l 531 361 l 496 363 l 508 0 l 300 0 l 313 372 l 240 376 m 749 514 l 763 0 l 554 0 l 568 486 l 749 514 z "},"−":{"ha":533,"x_min":21,"x_max":507,"o":"m 507 306 l 21 319 l 35 444 l 507 458 l 507 306 z "},"⁄":{"ha":517,"x_min":1,"x_max":515,"o":"m 356 750 l 515 764 l 189 0 l 1 0 l 356 750 z "},"œ":{"ha":888,"x_min":17,"x_max":871,"o":"m 711 139 q 763 143 739 139 q 806 153 788 147 q 843 167 826 158 l 857 28 q 804 7 833 15 q 745 -8 779 -1 q 669 -14 711 -14 q 559 2 608 -14 q 472 47 510 18 q 281 -14 404 -14 q 85 49 154 -14 q 17 243 17 113 q 85 437 17 374 q 281 500 154 500 q 463 446 396 500 q 635 500 532 500 q 736 481 692 500 q 810 428 781 461 q 856 353 840 396 q 871 264 871 311 q 825 238 854 251 q 760 213 796 225 q 688 190 725 200 q 618 174 650 179 q 657 149 633 158 q 711 139 681 139 m 281 347 q 211 324 239 347 q 183 243 183 301 q 211 162 183 185 q 281 139 239 139 q 350 162 322 139 q 378 243 378 185 q 350 324 378 301 q 281 347 322 347 m 732 306 q 728 315 732 307 q 717 334 725 324 q 697 353 710 344 q 663 361 683 361 q 603 334 621 361 q 586 265 586 307 q 640 274 614 268 q 688 288 667 281 q 732 306 711 296 z "},"Œ":{"ha":858,"x_min":17,"x_max":840,"o":"m 826 764 l 840 556 l 576 569 l 581 472 l 800 486 l 786 278 l 589 292 l 592 194 l 840 208 l 826 0 l 378 0 q 222 28 289 0 q 108 107 154 56 q 40 230 63 158 q 17 389 17 301 q 108 664 17 564 q 392 764 200 764 l 826 764 m 378 556 q 261 508 301 556 q 221 383 221 460 q 261 258 221 307 q 378 208 301 208 l 378 556 z "},"\u0000":{"ha":0,"x_min":0,"x_max":0,"o":""}}}
